<svg viewBox="0 0 220 220" version="1.1" xmlns="http://www.w3.org/2000/svg" xmlns:svg="http://www.w3.org/2000/svg"><defs id="defs1" /><g id="layer1"><g id="g46" transform="matrix(0.26458333,0,0,0.26458333,-141.63373,-117.16495)"><path fill-rule="evenodd" fill="currentColor" fill-opacity="1" d="m 663.70703,579.58984 0.004,96.69141 c 64.83203,37.42969 129.66015,74.86719 194.5,112.28906 L 925.44922,749.75 c 0.004,-44.92969 -0.004,-89.85938 -0.004,-134.78906 l -83.73437,48.33984 0.004,19.05859 C 782.375,648.10156 723.04297,613.83984 663.70703,579.58984" /><path fill-rule="evenodd" fill="currentColor" fill-opacity="1" d="m 1048.9883,470.23047 -83.73439,48.34765 c 0,74.86329 -0.008,149.72266 0,224.59375 l 67.23439,38.81641 c 38.9219,-22.46875 77.832,-44.9375 116.7422,-67.39844 l -83.7422,-48.35156 -16.5,9.53125 c 0,-68.51953 0,-137.03125 0,-205.53906" /><path fill-rule="evenodd" fill="currentColor" fill-opacity="1" d="m 1336.3398,749.21094 -83.7382,-48.33985 c -64.8321,37.42969 -129.6719,74.85938 -194.5,112.28907 v 77.64062 c 38.9101,22.46875 77.8281,44.92969 116.7382,67.39844 v -96.6875 l -16.5117,-9.53125 C 1217.6719,817.71875 1277,783.46875 1336.3398,749.21094" /><path fill-rule="evenodd" fill="currentColor" fill-opacity="1" d="m 1238.4102,1137.5508 -0.012,-96.6797 C 1173.5703,1003.4414 1108.7383,966 1043.8984,928.57031 l -67.23434,38.82031 c -0.004,44.92968 0.004,89.87108 0.004,134.80078 l 83.73044,-48.3516 v -19.0507 c 59.3399,34.25 118.6719,68.5117 178.0118,102.7617" /><path fill-rule="evenodd" fill="currentColor" fill-opacity="1" d="m 853.125,1246.9219 83.73437,-48.3516 c 0,-74.8594 0.008,-149.7305 0,-224.58983 l -67.23828,-38.82031 c -38.91406,22.46093 -77.82422,44.92968 -116.73437,67.39844 l 83.73437,48.3398 16.50391,-9.5273 c 0.004,68.5195 0,137.0273 0,205.5508" /><path fill-rule="evenodd" fill="currentColor" fill-opacity="1" d="m 565.77344,967.92969 83.73828,48.33981 c 64.83203,-37.42966 129.67187,-74.84763 194.5039,-112.28903 V 826.33984 C 805.10547,803.87109 766.1875,781.41016 727.27734,758.94141 v 96.6875 l 16.50391,9.53125 c -59.33594,34.26171 -118.67188,68.51171 -178.00781,102.76953" /></g></g></svg>